# xmcd
#
# Track frame offsets:
#	150
#	21325
#	39400
#	56475
#	74187
#	97275
#	115287
#	150375
#	172562
#	189287
#	209025
#	230012
#
# Disc length: 3288 seconds
#
# Revision: 1
# Processed by: cddbd v1.5.1PL0 Copyright (c) Steve Scherf et al.
# Submitted via: CDex 1.50Beta5
#
DISCID=a70cd60c
DTITLE=高中正義 - Complete Kitty Singles Collection Disc 1
DYEAR=1900
DGENRE=
TTITLE0=Sweet Agnes
TTITLE1=Mambo No.5
TTITLE2=Star Wars Samba
TTITLE3=パラレル・ターン
TTITLE4=Blue Lagoon
TTITLE5=My Secret Beach
TTITLE6=You Can Never Come To This Place
TTITLE7=Alone
TTITLE8=Saudade
TTITLE9=To You
TTITLE10=Jumping Take Off
TTITLE11=ようこそ、夏の王国へ
EXTD=
EXTT0=
EXTT1=
EXTT2=
EXTT3=
EXTT4=
EXTT5=
EXTT6=
EXTT7=
EXTT8=
EXTT9=
EXTT10=
EXTT11=
PLAYORDER=
